<?xml version="1.0" encoding="UTF-8"?>
<svg height="24px" version="1.1" viewBox="0 0 24 24" width="24px" xmlns="http://www.w3.org/2000/svg" xmlns:xlink="http://www.w3.org/1999/xlink"><title/><desc/><g fill="none" fill-rule="evenodd" id="Social-/-22---Social,-like,-thumb,-thumbs,-up,-vote-icon" stroke="none" stroke-linecap="round" stroke-linejoin="round" stroke-width="1"><path d="M2.84,9.95515025 L5.92105263,9.95515025 L5.92105263,21.999518 L2.84,21.999518 C2.37608081,21.999518 2,21.6413458 2,21.199518 L2,10.7551503 C2,10.3133225 2.37608081,9.95515025 2.84,9.95515025 Z" id="Path" stroke="#000000" stroke-width="2"/><path d="M20.529912,19.744555 C20.3348968,21.2456783 19.3319613,21.999518 17.548965,21.999518 L8.21944631,21.999518 C6.95184737,21.999518 5.92105263,21.0293595 5.92105263,19.836327 L5.92105263,9.96957738 C8.87972245,9.68119584 10.3590574,8.64833003 10.3590574,5.87098 L10.3590654,4.540041 C10.3590654,3.13721507 11.5531413,2 13.0261085,2 C13.5874236,2 14.1344295,2.16866617 14.5892331,2.481981 C15.2160678,2.91461915 15.6154988,3.73400978 15.6154988,4.913932 L15.6154988,8.76653398 C15.6154988,9.09429015 16.1702494,9.36305021 16.725,9.36305021 L19.701097,9.36305021 C20.9547663,9.36305021 21.9716317,10.306988 21.999491,11.4803551 C22.0180639,12.2625998 21.5282042,14.6839997 20.529912,19.744555 Z" id="Path" stroke="#000000" stroke-width="2"/></g></svg>